<svg id="visual" viewBox="0 0 900 300" width="900" height="300" xmlns="http://www.w3.org/2000/svg" xmlns:xlink="http://www.w3.org/1999/xlink" version="1.1"><rect x="0" y="0" width="900" height="300" fill="#001220"></rect><path d="M0 75L21.5 71.3C43 67.7 86 60.3 128.8 68.3C171.7 76.3 214.3 99.7 257.2 105.7C300 111.7 343 100.3 385.8 104.2C428.7 108 471.3 127 514.2 135.3C557 143.7 600 141.3 642.8 129.5C685.7 117.7 728.3 96.3 771.2 86.7C814 77 857 79 878.5 80L900 81L900 301L878.5 301C857 301 814 301 771.2 301C728.3 301 685.7 301 642.8 301C600 301 557 301 514.2 301C471.3 301 428.7 301 385.8 301C343 301 300 301 257.2 301C214.3 301 171.7 301 128.8 301C86 301 43 301 21.5 301L0 301Z" fill="#fa7268"></path><path d="M0 115L21.5 111.7C43 108.3 86 101.7 128.8 110.7C171.7 119.7 214.3 144.3 257.2 156.2C300 168 343 167 385.8 165C428.7 163 471.3 160 514.2 158C557 156 600 155 642.8 155C685.7 155 728.3 156 771.2 147.5C814 139 857 121 878.5 112L900 103L900 301L878.5 301C857 301 814 301 771.2 301C728.3 301 685.7 301 642.8 301C600 301 557 301 514.2 301C471.3 301 428.7 301 385.8 301C343 301 300 301 257.2 301C214.3 301 171.7 301 128.8 301C86 301 43 301 21.5 301L0 301Z" fill="#ef5f67"></path><path d="M0 191L21.5 182C43 173 86 155 128.8 154.7C171.7 154.3 214.3 171.7 257.2 175.5C300 179.3 343 169.7 385.8 164C428.7 158.3 471.3 156.7 514.2 159.7C557 162.7 600 170.3 642.8 172.5C685.7 174.7 728.3 171.3 771.2 168.2C814 165 857 162 878.5 160.5L900 159L900 301L878.5 301C857 301 814 301 771.2 301C728.3 301 685.7 301 642.8 301C600 301 557 301 514.2 301C471.3 301 428.7 301 385.8 301C343 301 300 301 257.2 301C214.3 301 171.7 301 128.8 301C86 301 43 301 21.5 301L0 301Z" fill="#e34c67"></path><path d="M0 223L21.5 223.5C43 224 86 225 128.8 220.3C171.7 215.7 214.3 205.3 257.2 198C300 190.7 343 186.3 385.8 185.8C428.7 185.3 471.3 188.7 514.2 195.5C557 202.3 600 212.7 642.8 211C685.7 209.3 728.3 195.7 771.2 192.8C814 190 857 198 878.5 202L900 206L900 301L878.5 301C857 301 814 301 771.2 301C728.3 301 685.7 301 642.8 301C600 301 557 301 514.2 301C471.3 301 428.7 301 385.8 301C343 301 300 301 257.2 301C214.3 301 171.7 301 128.8 301C86 301 43 301 21.5 301L0 301Z" fill="#d53867"></path><path d="M0 255L21.5 251.3C43 247.7 86 240.3 128.8 238.7C171.7 237 214.3 241 257.2 244.8C300 248.7 343 252.3 385.8 249.7C428.7 247 471.3 238 514.2 236.7C557 235.3 600 241.7 642.8 243.7C685.7 245.7 728.3 243.3 771.2 247.3C814 251.3 857 261.7 878.5 266.8L900 272L900 301L878.5 301C857 301 814 301 771.2 301C728.3 301 685.7 301 642.8 301C600 301 557 301 514.2 301C471.3 301 428.7 301 385.8 301C343 301 300 301 257.2 301C214.3 301 171.7 301 128.8 301C86 301 43 301 21.5 301L0 301Z" fill="#c62368"></path></svg>