<svg id="visual" viewBox="0 0 900 100" width="900" height="100" xmlns="http://www.w3.org/2000/svg" xmlns:xlink="http://www.w3.org/1999/xlink" version="1.1"><path d="M0 36L21.5 42.2C43 48.3 86 60.7 128.8 65.3C171.7 70 214.3 67 257.2 65.7C300 64.3 343 64.7 385.8 62.7C428.7 60.7 471.3 56.3 514.2 54C557 51.7 600 51.3 642.8 54.2C685.7 57 728.3 63 771.2 65.5C814 68 857 67 878.5 66.5L900 66L900 0L878.5 0C857 0 814 0 771.2 0C728.3 0 685.7 0 642.8 0C600 0 557 0 514.2 0C471.3 0 428.7 0 385.8 0C343 0 300 0 257.2 0C214.3 0 171.7 0 128.8 0C86 0 43 0 21.5 0L0 0Z" fill="#C62368" stroke-linecap="round" stroke-linejoin="miter"></path></svg>